<svg height="430" viewBox="0 0 655.449 429.11" width="656" xmlns="http://www.w3.org/2000/svg" xmlns:xlink="http://www.w3.org/1999/xlink"><linearGradient id="a" gradientUnits="userSpaceOnUse" x1="338.593" x2="593.723" y1="420.208" y2="111.078"><stop offset="0" stop-color="#fa87ff" stop-opacity="0"/><stop offset=".143" stop-color="#fa87ff"/><stop offset=".564" stop-color="#fa87ff" stop-opacity=".6"/><stop offset=".859" stop-color="#fa87ff"/><stop offset="1" stop-color="#fa87ff" stop-opacity="0"/></linearGradient><linearGradient id="b" gradientUnits="userSpaceOnUse" x1="558.055" x2="337.359" y1="41.775" y2="426.036"><stop offset="0" stop-color="#05d8e8" stop-opacity="0"/><stop offset=".143" stop-color="#05d8e8"/><stop offset=".564" stop-color="#05d8e8" stop-opacity=".6"/><stop offset=".859" stop-color="#05d8e8"/><stop offset="1" stop-color="#05d8e8" stop-opacity="0"/></linearGradient><linearGradient id="c" gradientUnits="userSpaceOnUse" x1="91.624" x2="454.755" y1="287.599" y2="408.642"><stop offset="0" stop-color="#05d8e8" stop-opacity="0"/><stop offset=".126" stop-color="#05d8e8"/><stop offset=".564" stop-color="#05d8e8" stop-opacity=".6"/><stop offset=".962" stop-color="#05d8e8"/><stop offset="1" stop-color="#05d8e8" stop-opacity="0"/></linearGradient><linearGradient id="d" gradientUnits="userSpaceOnUse" x1="58.307" x2="477.808" y1="201.075" y2="400.389"><stop offset="0" stop-color="#fa87ff" stop-opacity="0"/><stop offset=".143" stop-color="#fa87ff"/><stop offset=".564" stop-color="#fa87ff" stop-opacity=".6"/><stop offset=".859" stop-color="#fa87ff"/><stop offset=".975" stop-color="#fa87ff" stop-opacity="0"/></linearGradient><linearGradient id="e" gradientUnits="userSpaceOnUse" x1="379.407" x2="641.32" y1="242.035" y2="201.34"><stop offset="0" stop-color="#fa87ff" stop-opacity="0"/><stop offset=".143" stop-color="#fa87ff"/><stop offset=".552" stop-color="#fa87ff" stop-opacity=".3"/><stop offset=".859" stop-color="#fa87ff"/><stop offset="1" stop-color="#fa87ff" stop-opacity="0"/></linearGradient><linearGradient id="f" gradientUnits="userSpaceOnUse" x1="108.468" x2="366.729" y1="372.447" y2="279.317"><stop offset="0" stop-color="#fa87ff" stop-opacity="0"/><stop offset=".143" stop-color="#fa87ff"/><stop offset=".565" stop-color="#fa87ff" stop-opacity=".4"/><stop offset=".859" stop-color="#fa87ff"/><stop offset="1" stop-color="#fa87ff" stop-opacity="0"/></linearGradient><linearGradient id="g" gradientUnits="userSpaceOnUse" x1="-6.55" x2="95.033" y1="162.156" y2="386.302"><stop offset="0" stop-color="#05d8e8" stop-opacity="0"/><stop offset=".143" stop-color="#05d8e8"/><stop offset=".564" stop-color="#05d8e8" stop-opacity=".6"/><stop offset=".859" stop-color="#05d8e8"/><stop offset=".958" stop-color="#05d8e8" stop-opacity="0"/></linearGradient><linearGradient id="h" gradientUnits="userSpaceOnUse" x1="599.582" x2="461.06" y1="-15.259" y2="216.002"><stop offset=".155" stop-color="#fa87ff" stop-opacity=".8"/><stop offset=".886" stop-color="#ff296d"/></linearGradient><linearGradient id="i" gradientUnits="userSpaceOnUse" x1="114.359" x2="316.272" y1="354.687" y2="90.165"><stop offset=".187" stop-color="#005679"/><stop offset=".935" stop-color="#0ea8cc" stop-opacity=".8"/></linearGradient><linearGradient id="j" gradientTransform="matrix(.9635978 .2673561 -.2673561 .9635978 32.974 -76.651)" gradientUnits="userSpaceOnUse" x1="-12.117" x2="609.469" y1="170.022" y2="-4.905"><stop offset=".007" stop-color="#05d8e8" stop-opacity="0"/><stop offset=".143" stop-color="#05d8e8"/><stop offset=".564" stop-color="#05d8e8" stop-opacity=".6"/><stop offset=".859" stop-color="#05d8e8"/><stop offset=".983" stop-color="#05d8e8" stop-opacity="0"/></linearGradient><linearGradient id="k" gradientUnits="userSpaceOnUse" x1="585.23" x2="654.114" y1="-5.356" y2="157.405"><stop offset="0" stop-color="#fa87ff" stop-opacity="0"/><stop offset=".196" stop-color="#fa87ff"/><stop offset=".564" stop-color="#fa87ff" stop-opacity=".6"/><stop offset=".859" stop-color="#fa87ff"/><stop offset=".972" stop-color="#fa87ff" stop-opacity="0"/></linearGradient><linearGradient id="l" gradientUnits="userSpaceOnUse" x1="91.345" x2="647.519" y1="346.681" y2="151.029"><stop offset="0" stop-color="#fa87ff" stop-opacity="0"/><stop offset=".143" stop-color="#fa87ff"/><stop offset=".479" stop-color="#fa87ff" stop-opacity=".4"/><stop offset=".859" stop-color="#fa87ff"/><stop offset="1" stop-color="#fa87ff" stop-opacity="0"/></linearGradient><linearGradient id="m" gradientUnits="userSpaceOnUse" x1="4.934" x2="82.673" y1="153.442" y2="347.007"><stop offset="0" stop-color="#05d8e8" stop-opacity="0"/><stop offset=".126" stop-color="#05d8e8"/><stop offset=".564" stop-color="#05d8e8" stop-opacity=".6"/><stop offset=".859" stop-color="#05d8e8"/><stop offset="1" stop-color="#05d8e8" stop-opacity="0"/></linearGradient><linearGradient id="n" x1="334.154" x2="196.415" xlink:href="#b" y1="155.862" y2="357.775"/><linearGradient id="o" x1="217.76" x2="89.412" xlink:href="#a" y1="101.911" y2="287.128"/><linearGradient id="p" x1="518.369" x2="405.152" xlink:href="#a" y1="21.313" y2="186.704"/><linearGradient id="q" x1="610.888" x2="495.062" xlink:href="#b" y1="71.259" y2="244.998"/><path d="m625.036 78.749-5.547 13.401-5.478-14.576 8.609-1.076z" fill="#01012a"/><path d="m564.731 31.4s-220.086 341.348-228.09 353.87-6.263 28.088 10.435 38.087c18.061 10.816 29.199-8.479 20.729-13.696-10.342-6.371-7.965-7.79.504-20.834 8.47-13.043 155.726-214.47 155.726-214.47l31.826 6.08 51.652-71.819-42.783-77.217z" fill="#01012a"/><path d="m357.584 429.11c-3.557 0-7.547-1.066-11.793-3.608-8.377-5.017-13.767-11.756-15.588-19.489-1.699-7.217-.161-15.062 4.332-22.09l4.213 2.693c-3.758 5.879-5.064 12.36-3.677 18.251 1.503 6.387 6.099 12.039 13.29 16.344 9.996 5.986 16.406 1.422 18.617-2.219 1.47-2.421 1.946-5.708-.483-7.204-4.48-2.759-7.205-4.953-7.878-7.997-.795-3.597 1.431-6.969 5.472-13.089.656-.993 1.366-2.068 2.125-3.237 8.41-12.953 149.79-206.357 155.804-214.584l.934-1.277 31.812 6.077 50.721-70.523 4.06 2.919-52.584 73.114-31.839-6.082c-12.579 17.21-146.729 200.783-154.714 213.079-.767 1.181-1.483 2.267-2.146 3.27-2.961 4.485-5.1 7.725-4.762 9.255.306 1.386 3.012 3.214 5.618 4.819 4.5 2.772 5.398 8.684 2.134 14.057-2.609 4.296-7.481 7.521-13.667 7.521z" fill="url(#a)" opacity=".61"/><path d="m564.511 23.053s-218.253 344.87-226.257 357.391c-8.004 12.522-6.963 28.174 9.735 38.173 18.061 10.816 26.087-5.826 17.617-11.043-10.342-6.371-5.987-14.052 2.483-27.095s155.726-214.47 155.726-214.47l31.826 6.08 51.652-71.819-42.783-77.217z" fill="#321450"/><path d="m359.021 424.68c-3.483 0-7.627-1.11-12.316-3.917-8.112-4.858-13.34-11.415-15.117-18.962-1.728-7.338-.108-15.4 4.559-22.703 7.909-12.374 224.068-353.933 226.251-357.381l4.225 2.674c-2.182 3.449-218.347 345.017-226.263 357.401-3.934 6.154-5.32 12.853-3.905 18.864 1.46 6.201 5.893 11.67 12.818 15.818 7.83 4.688 13.212 3.559 15.64.938l3.668 3.397c-2.064 2.229-5.322 3.872-9.56 3.873z" fill="url(#b)" opacity=".61"/><path d="m8.376 169.531s414.874 182.478 439.396 192.913 28.859 32.196 15.565 54.913c-5.652 9.659-20.87 4.696-19.304-10.435s-12.522-16.868-31.826-24.694-256.837-87.48-256.837-87.48l-6.12 15.652-70.435-21.391-20.87-55.563-49.57-63.915z" fill="#01012a"/><path d="m455.036 424.817c-1.266 0-2.557-.202-3.837-.621-5.521-1.807-10.646-7.928-9.652-17.532 1.041-10.061-5.498-12.898-20.387-18.357-3.144-1.153-6.394-2.345-9.892-3.763-18.009-7.301-230.076-78.496-254.436-86.669l-6.095 15.589-72.647-22.063 1.453-4.784 68.222 20.719 6.145-15.715 2.256.757c9.702 3.253 237.826 79.768 256.981 87.533 3.419 1.386 6.63 2.563 9.734 3.702 14.037 5.147 25.124 9.212 23.639 23.566-.755 7.3 2.886 11.169 6.234 12.265 3.295 1.077 6.603-.236 8.426-3.35l4.315 2.525c-2.316 3.958-6.248 6.198-10.459 6.198z" fill="url(#c)" opacity=".61"/><path d="m9.376 162.879s411.135 184.174 435.657 194.609 31.296 29.787 19.304 53.217c-8.348 16.311-20.87 4.696-19.304-10.435s-12.522-16.868-31.826-24.694-256.837-87.48-256.837-87.48l-6.12 15.652-70.435-21.391-20.87-55.563-49.57-63.915z" fill="#321450"/><path d="m457.306 420.811-1.286-4.832c2.098-.558 4.261-2.836 6.092-6.414 5.673-11.085 6.982-21.032 3.889-29.565-3.092-8.531-10.476-15.332-21.946-20.213-19.196-8.168-275.702-122.98-385.094-171.963l2.043-4.563c109.379 48.978 365.852 163.774 385.009 171.926 12.798 5.446 21.105 13.221 24.689 23.11 3.584 9.89 2.192 21.177-4.139 33.547-3.185 6.224-6.792 8.312-9.257 8.968z" fill="url(#d)" opacity=".61"/><path d="m611.594 91.746 6.79-3.78-36.53-76.57-572.478 151.483-6.652 9.217 28.18 104.35 23.48-6.78 27.09 93.39 24.04 12.52 257.74-91.83 6.652-9.217s-5.091-.389-9.047 1.093c-3.479-14.486-6.724-43.954 21.695-51.356 38.09-9.91 50.61 31.83 50.61 31.83l199.83-68.87 6.652-9.217zm-481.56 245.22-45.39-148.7 181.04-53.21 31.31 14.61 41.26 114.78zm309.39-108.52-43.83-108.52 7.31-20.35 151.3-45.39 55.31 115.37z" fill="#01012a"/><path d="m431.518 259.308-.748-2.494c-.486-1.607-12.315-39.306-47.586-30.129-6.268 1.632-11.264 4.524-14.848 8.595l-3.753-3.304c4.255-4.833 10.089-8.242 17.341-10.13 34.366-8.938 49.194 21.974 52.755 31.083l196.751-67.809 6.188-8.575 4.055 2.926-7.116 9.86-203.04 69.977z" fill="url(#e)" opacity=".61"/><path d="m106.353 377.931-1.678-4.71 257.007-91.569 6.197-8.587 4.055 2.926-7.108 9.849z" fill="url(#f)" opacity=".61"/><path d="m104.359 377.793-24.988-13.013-26.693-92.019-23.525 6.793-29.153-107.955 7.349-10.184 4.054 2.926-5.955 8.253 27.206 100.745 23.435-6.768 27.488 94.761 23.092 12.027z" fill="url(#g)" opacity=".61"/><path d="m438.197 222.625-44.816-116.496 12.521-21.805 157.044-44.576 62.09 126.261z" fill="url(#h)" opacity=".82"/><path d="m130.424 342.357-47.977-170.268 191.977-53.036 32.646 13.046 46.137 134.084z" fill="url(#i)" opacity=".81"/><path d="m618.246 82.529 6.79-3.78-36.53-76.57-579.13 160.7 28.18 104.35 23.48-6.78 27.09 93.39 24.04 12.52 257.74-91.83s-18.79-49.56 19.3-59.48c38.09-9.91 50.61 31.83 50.61 31.83l199.83-68.87 13.56-24.52zm-481.56 245.22-45.39-148.7 181.04-53.21 31.31 14.61 41.26 114.78zm309.39-108.52-43.83-108.52 7.31-20.35 151.3-45.39 55.31 115.37z" fill="#321450"/><path d="m-2.543 80.259h601.013v5h-601.013z" fill="url(#j)" opacity=".61" transform="matrix(.9635978 -.2673561 .2673561 .9635978 -11.28 82.677)"/><path d="m650.963 154.593-36.01-73.093 6.816-3.794-35.519-74.451 4.513-2.153 37.54 78.689-6.763 3.765 33.909 68.827z" fill="url(#k)" opacity=".61"/><path d="m111.978 369.079-25.007-13.023 2.31-4.435 23.073 12.017 254.386-90.635c-2.278-7.113-7.862-28.271.312-44.095 4.227-8.183 11.468-13.659 21.523-16.278 34.366-8.938 49.194 21.974 52.755 31.083l196.592-67.754 13.095-23.679 4.375 2.42-14.025 25.361-203.199 70.031-.748-2.494c-.485-1.607-12.312-39.306-47.586-30.129-8.617 2.244-14.785 6.861-18.334 13.721-8.74 16.897.647 42.201.743 42.454l.901 2.384-2.4.856-258.767 92.196z" fill="url(#l)" opacity=".61"/><path d="m85.725 354.535-26.394-90.992-23.525 6.793-28.844-106.806 4.828-1.303 27.517 101.894 23.435-6.767 27.785 95.788z" fill="url(#m)" opacity=".61"/><path d="m137.508 330.109-1.644-4.721 205.836-71.69-40.054-111.424-30.367-14.17 2.114-4.531 32.253 15.05 42.467 118.136z" fill="url(#n)" opacity=".61"/><path d="m134.295 328.478-46.128-151.116 183.464-53.922 1.41 4.797-178.617 52.497 44.653 146.285z" fill="url(#o)" opacity=".61"/><path d="m443.758 220.165-44.187-109.404 8.059-22.435 152.508-45.752 1.436 4.789-150.092 45.028-6.561 18.265 43.473 107.636z" fill="url(#p)" opacity=".61"/><path d="m446.894 221.591-1.636-4.725 167.443-57.973-54.099-112.844 4.508-2.161 56.521 117.896z" fill="url(#q)" opacity=".61"/></svg>